<svg width="158" height="152" viewBox="0 0 158 152" fill="none" xmlns="http://www.w3.org/2000/svg">
<path d="M96.695 24.6691L110.41 10.2013H22.0255C8.92028 10.2013 0.691406 22.004 0.691406 30.7608V129.37C0.99618 141.858 12.8823 150.691 22.4065 150.691H119.172C133.192 150.387 141.268 137.746 141.268 129.751V53.224L126.41 68.0725V129.751C126.41 133.178 121.839 135.843 119.172 135.843H22.4065C17.5301 135.843 15.5491 132.035 15.5491 129.37V30.7608C16.1586 26.8012 18.9778 24.6691 22.0255 24.6691H96.695Z" fill="black"/>
<path d="M126.41 11.7243L60.5032 76.0679L54.4077 100.815C54.1029 103.557 56.5665 103.481 57.8364 103.1L81.4563 96.2467L145.84 31.903L126.41 11.7243Z" fill="black"/>
<path d="M152.316 25.4306L132.506 5.63255C135.808 2.07905 144.392 -3.04813 152.316 4.87109C160.24 12.7903 155.618 21.8771 152.316 25.4306Z" fill="black"/>
<path d="M96.695 24.6691L110.41 10.2013H22.0255C8.92028 10.2013 0.691406 22.004 0.691406 30.7608V129.37C0.99618 141.858 12.8823 150.691 22.4065 150.691H119.172C133.192 150.387 141.268 137.746 141.268 129.751V53.224L126.41 68.0725V129.751C126.41 133.178 121.839 135.843 119.172 135.843H22.4065C17.5301 135.843 15.5491 132.035 15.5491 129.37V30.7608C16.1586 26.8012 18.9778 24.6691 22.0255 24.6691H96.695Z" stroke="black" stroke-width="1.38286"/>
<path d="M126.41 11.7243L60.5032 76.0679L54.4077 100.815C54.1029 103.557 56.5665 103.481 57.8364 103.1L81.4563 96.2467L145.84 31.903L126.41 11.7243Z" stroke="black" stroke-width="1.38286"/>
<path d="M152.316 25.4306L132.506 5.63255C135.808 2.07905 144.392 -3.04813 152.316 4.87109C160.24 12.7903 155.618 21.8771 152.316 25.4306Z" stroke="black" stroke-width="1.38286"/>
</svg>
